<svg width="216" height="194" viewBox="0 0 216 194" fill="none" xmlns="http://www.w3.org/2000/svg">
<path d="M34.0829 132.335C35.2502 133.232 35.4507 134.783 34.5507 135.954C33.6506 137.126 32.1002 137.331 30.9329 136.434C29.7656 135.537 29.5651 133.986 30.4652 132.815C31.3652 131.644 33.0129 131.513 34.0829 132.335Z" fill="#FFCF2D"/>
<path d="M47.5082 114.864C48.6755 115.761 48.876 117.312 47.9759 118.484C47.0759 119.655 45.5255 119.86 44.3582 118.963C43.1909 118.066 42.9904 116.515 43.8905 115.344C44.7155 114.27 46.4382 114.042 47.5082 114.864Z" fill="#FFCF2D"/>
<path d="M60.8583 97.4922C62.0256 98.3893 62.2261 99.9404 61.326 101.112C60.426 102.283 58.8756 102.488 57.7083 101.591C56.541 100.694 56.3405 99.1431 57.2406 97.972C58.1406 96.8008 59.7883 96.67 60.8583 97.4922Z" fill="#FFCF2D"/>
<path d="M74.2836 80.0225C75.4509 80.9195 75.6514 82.4707 74.7513 83.6418C73.8513 84.813 72.3008 85.0186 71.1336 84.1216C69.9663 83.2245 69.7658 81.6734 70.6659 80.5022C71.5659 79.3311 73.2136 79.2002 74.2836 80.0225Z" fill="#FFCF2D"/>
<path d="M87.7089 62.5528C88.8762 63.4498 89.0766 65.001 88.1766 66.1721C87.2766 67.3433 85.7261 67.5489 84.5589 66.6518C83.3916 65.7548 83.1911 64.2037 84.0911 63.0325C84.9162 61.9589 86.6389 61.7305 87.7089 62.5528Z" fill="#FFCF2D"/>
<path d="M101.134 45.0831C102.301 45.9801 102.502 47.5312 101.602 48.7024C100.702 49.8736 99.1514 50.0792 97.9841 49.1821C96.8169 48.2851 96.6164 46.7339 97.5164 45.5628C98.4165 44.3916 100.064 44.2608 101.134 45.0831Z" fill="#FFCF2D"/>
<path d="M114.484 27.711C115.652 28.608 115.852 30.1592 114.952 31.3303C114.052 32.5015 112.502 32.7071 111.334 31.81C110.167 30.913 109.967 29.3619 110.867 28.1907C111.767 27.0195 113.414 26.8887 114.484 27.711Z" fill="#FFCF2D"/>
<path d="M127.91 10.2413C129.077 11.1383 129.277 12.6894 128.377 13.8606C127.477 15.0318 125.927 15.2374 124.76 14.3403C123.592 13.4433 123.392 11.8921 124.292 10.721C125.192 9.54982 126.84 9.41898 127.91 10.2413Z" fill="#FFCF2D"/>
<path d="M48.5766 143.473C49.7439 144.37 49.9443 145.921 49.0443 147.092C48.1443 148.263 46.5938 148.469 45.4265 147.572C44.2593 146.675 44.0588 145.124 44.9588 143.952C45.8588 142.781 47.4093 142.576 48.5766 143.473Z" fill="#FFCF2D"/>
<path d="M62.0019 126.003C63.1692 126.9 63.3696 128.451 62.4696 129.622C61.5696 130.793 60.0191 130.999 58.8518 130.102C57.6845 129.205 57.4841 127.654 58.3841 126.483C59.2091 125.409 60.8346 125.106 62.0019 126.003Z" fill="#FFCF2D"/>
<path d="M75.352 108.631C76.5193 109.528 76.7197 111.079 75.8197 112.25C74.9197 113.421 73.3692 113.627 72.2019 112.73C71.0346 111.833 70.8342 110.282 71.7342 109.111C72.6342 107.939 74.1847 107.734 75.352 108.631Z" fill="#FFCF2D"/>
<path d="M88.7773 91.1612C89.9446 92.0582 90.145 93.6094 89.245 94.7805C88.345 95.9517 86.7945 96.1573 85.6272 95.2602C84.4599 94.3632 84.2595 92.8121 85.1595 91.6409C86.0595 90.4697 87.61 90.2641 88.7773 91.1612Z" fill="#FFCF2D"/>
<path d="M102.203 73.6905C103.37 74.5875 103.57 76.1387 102.67 77.3098C101.77 78.481 100.22 78.6866 99.0525 77.7895C97.8852 76.8925 97.6848 75.3414 98.5848 74.1702C99.4098 73.0966 101.035 72.7934 102.203 73.6905Z" fill="#FFCF2D"/>
<path d="M115.628 56.2208C116.795 57.1178 116.996 58.6689 116.096 59.8401C115.196 61.0113 113.645 61.2169 112.478 60.3198C111.311 59.4228 111.11 57.8716 112.01 56.7005C112.91 55.5293 114.461 55.3237 115.628 56.2208Z" fill="#FFCF2D"/>
<path d="M128.978 38.8487C130.145 39.7457 130.346 41.2969 129.446 42.468C128.546 43.6392 126.995 43.8448 125.828 42.9477C124.661 42.0507 124.46 40.4996 125.36 39.3284C126.26 38.1572 127.811 37.9517 128.978 38.8487Z" fill="#FFCF2D"/>
<path d="M142.403 21.3789C143.571 22.276 143.771 23.8271 142.871 24.9983C141.971 26.1695 140.42 26.3751 139.253 25.478C138.086 24.581 137.885 23.0298 138.785 21.8587C139.685 20.6875 141.236 20.4819 142.403 21.3789Z" fill="#FFCF2D"/>
<path d="M155.829 3.90923C156.996 4.80627 157.196 6.35741 156.296 7.52857C155.396 8.69973 153.846 8.90533 152.678 8.00829C151.511 7.11126 151.311 5.5601 152.211 4.38894C153.036 3.31538 154.661 3.0122 155.829 3.90923Z" fill="#FFCF2D"/>
<path d="M5.1928 110.133C6.36008 111.03 6.56053 112.581 5.66052 113.752C4.7605 114.923 3.21003 115.129 2.04275 114.232C0.875462 113.335 0.675012 111.784 1.57503 110.613C2.47504 109.441 4.02552 109.236 5.1928 110.133Z" fill="#FFCF2D"/>
<path d="M18.6181 92.6631C19.7854 93.5602 19.9858 95.1113 19.0858 96.2825C18.1858 97.4536 16.6353 97.6592 15.468 96.7622C14.3008 95.8652 14.1003 94.314 15.0003 93.1429C15.8253 92.0693 17.4508 91.7661 18.6181 92.6631Z" fill="#FFCF2D"/>
<path d="M31.9682 75.2911C33.1355 76.1881 33.3359 77.7392 32.4359 78.9104C31.5359 80.0816 29.9854 80.2872 28.8181 79.3901C27.6509 78.4931 27.5254 76.8443 28.3504 75.7708C29.2504 74.5996 30.8009 74.394 31.9682 75.2911Z" fill="#FFCF2D"/>
<path d="M45.3935 57.8213C46.5608 58.7184 46.7612 60.2695 45.8612 61.4407C44.9612 62.6118 43.4107 62.8174 42.2434 61.9204C41.0761 61.0234 40.9507 59.3746 41.7757 58.3011C42.6007 57.2275 44.2262 56.9243 45.3935 57.8213Z" fill="#FFCF2D"/>
<path d="M58.8188 40.3516C59.9861 41.2486 60.1865 42.7998 59.2865 43.971C58.3865 45.1421 56.836 45.3477 55.6687 44.4507C54.5014 43.5536 54.301 42.0025 55.201 40.8313C56.026 39.7578 57.6515 39.4546 58.8188 40.3516Z" fill="#FFCF2D"/>
<path d="M72.2441 22.8809C73.4114 23.7779 73.6118 25.3291 72.7118 26.5002C71.8118 27.6714 70.2613 27.877 69.094 26.98C67.9267 26.0829 67.7263 24.5318 68.6263 23.3606C69.5263 22.1895 71.0768 21.9839 72.2441 22.8809Z" fill="#FFCF2D"/>
<path d="M85.5942 5.50884C86.7614 6.40588 86.9619 7.95702 86.0619 9.12818C85.1619 10.2993 83.6114 10.5049 82.4441 9.6079C81.2768 8.71086 81.0764 7.15971 81.9764 5.98855C82.8764 4.8174 84.4269 4.61181 85.5942 5.50884Z" fill="#FFCF2D"/>
<path d="M19.6865 121.272C20.8537 122.169 21.0542 123.72 20.1542 124.891C19.2542 126.062 17.6064 126.193 16.5364 125.371C15.3691 124.474 15.1687 122.922 16.0687 121.751C16.9687 120.58 18.5192 120.374 19.6865 121.272Z" fill="#FFCF2D"/>
<path d="M33.1117 103.801C34.279 104.698 34.4795 106.249 33.5795 107.42C32.6794 108.591 31.129 108.797 29.9617 107.9C28.7944 107.003 28.594 105.452 29.494 104.281C30.319 103.207 31.9445 102.904 33.1117 103.801Z" fill="#FFCF2D"/>
<path d="M46.4618 86.4288C47.6291 87.3258 47.8296 88.8769 46.9296 90.0481C46.0295 91.2193 44.4791 91.4249 43.3118 90.5278C42.1445 89.6308 41.9441 88.0796 42.8441 86.9085C43.7441 85.7373 45.2946 85.5317 46.4618 86.4288Z" fill="#FFCF2D"/>
<path d="M59.8871 68.959C61.0544 69.8561 61.2549 71.4072 60.3549 72.5784C59.4548 73.7495 57.9044 73.9551 56.7371 73.0581C55.5698 72.1611 55.3693 70.6099 56.2694 69.4387C57.1694 68.2676 58.7199 68.062 59.8871 68.959Z" fill="#FFCF2D"/>
<path d="M73.3124 51.4893C74.4797 52.3863 74.6802 53.9375 73.7801 55.1086C72.8801 56.2798 71.3297 56.4854 70.1624 55.5884C68.9951 54.6913 68.7946 53.1402 69.6947 51.969C70.5197 50.8955 72.1451 50.5923 73.3124 51.4893Z" fill="#FFCF2D"/>
<path d="M86.7377 34.0196C87.905 34.9166 88.1055 36.4678 87.2054 37.6389C86.3054 38.8101 84.7549 39.0157 83.5877 38.1186C82.4204 37.2216 82.2199 35.6705 83.1199 34.4993C84.02 33.3281 85.5704 33.1225 86.7377 34.0196Z" fill="#FFCF2D"/>
<path d="M100.088 16.6475C101.255 17.5445 101.456 19.0957 100.556 20.2669C99.6555 21.438 98.105 21.6436 96.9378 20.7466C95.7705 19.8495 95.57 18.2984 96.47 17.1272C97.3701 15.9561 98.9205 15.7505 100.088 16.6475Z" fill="#FFCF2D"/>
<path d="M113.513 -0.822226C114.68 0.07481 114.881 1.62596 113.981 2.79713C113.081 3.96829 111.53 4.17388 110.363 3.27684C109.196 2.37981 108.995 0.828662 109.895 -0.3425C110.795 -1.51366 112.346 -1.71926 113.513 -0.822226Z" fill="#FFCF2D"/>
<path d="M62.9736 154.536C64.1408 155.433 64.3413 156.984 63.4413 158.156C62.5413 159.327 60.9908 159.532 59.8235 158.635C58.6562 157.738 58.4558 156.187 59.3558 155.016C60.2558 153.845 61.9036 153.714 62.9736 154.536Z" fill="#FFCF2D"/>
<path d="M76.3989 137.066C77.5661 137.963 77.7666 139.515 76.8666 140.686C75.9665 141.857 74.4161 142.063 73.2488 141.166C72.0815 140.268 71.8811 138.717 72.7811 137.546C73.6061 136.473 75.3288 136.244 76.3989 137.066Z" fill="#FFCF2D"/>
<path d="M89.749 119.694C90.9162 120.591 91.1167 122.143 90.2167 123.314C89.3167 124.485 87.7662 124.69 86.5989 123.793C85.4316 122.896 85.2312 121.345 86.1312 120.174C87.0312 119.003 88.6789 118.872 89.749 119.694Z" fill="#FFCF2D"/>
<path d="M103.174 102.225C104.342 103.122 104.542 104.673 103.642 105.844C102.742 107.015 101.191 107.221 100.024 106.324C98.8569 105.427 98.6565 103.876 99.5565 102.704C100.456 101.533 102.104 101.402 103.174 102.225Z" fill="#FFCF2D"/>
<path d="M116.6 84.7549C117.767 85.652 117.967 87.2031 117.067 88.3743C116.167 89.5454 114.617 89.751 113.449 88.854C112.282 87.957 112.082 86.4058 112.982 85.2346C113.807 84.1611 115.53 83.9326 116.6 84.7549Z" fill="#FFCF2D"/>
<path d="M130.025 67.2842C131.192 68.1813 131.393 69.7324 130.493 70.9036C129.593 72.0747 128.042 72.2803 126.875 71.3833C125.707 70.4863 125.507 68.9351 126.407 67.7639C127.307 66.5928 128.955 66.4619 130.025 67.2842Z" fill="#FFCF2D"/>
<path d="M143.375 49.9121C144.542 50.8092 144.743 52.3603 143.843 53.5315C142.943 54.7027 141.392 54.9083 140.225 54.0112C139.058 53.1142 138.857 51.563 139.757 50.3919C140.657 49.2207 142.305 49.0899 143.375 49.9121Z" fill="#FFCF2D"/>
<path d="M156.8 32.4424C157.968 33.3395 158.168 34.8906 157.268 36.0618C156.368 37.2329 154.817 37.4385 153.65 36.5415C152.483 35.6445 152.282 34.0933 153.182 32.9221C154.082 31.751 155.73 31.6201 156.8 32.4424Z" fill="#FFCF2D"/>
<path d="M170.226 14.9727C171.393 15.8697 171.593 17.4209 170.693 18.592C169.793 19.7632 168.243 19.9688 167.075 19.0718C165.908 18.1747 165.708 16.6236 166.608 15.4524C167.433 14.3789 169.155 14.1504 170.226 14.9727Z" fill="#FFCF2D"/>
<path d="M77.4672 165.674C78.6345 166.571 78.8349 168.122 77.9349 169.293C77.0349 170.464 75.4844 170.67 74.3172 169.773C73.1499 168.876 72.9494 167.325 73.8494 166.154C74.7495 164.982 76.2999 164.777 77.4672 165.674Z" fill="#FFCF2D"/>
<path d="M90.8925 148.204C92.0598 149.101 92.2602 150.652 91.3602 151.823C90.4602 152.995 88.9097 153.2 87.7424 152.303C86.5752 151.406 86.3747 149.855 87.2747 148.684C88.0998 147.61 89.7252 147.307 90.8925 148.204Z" fill="#FFCF2D"/>
<path d="M104.243 130.832C105.41 131.729 105.61 133.28 104.71 134.451C103.81 135.623 102.26 135.828 101.093 134.931C99.9253 134.034 99.7248 132.483 100.625 131.312C101.525 130.141 103.075 129.935 104.243 130.832Z" fill="#FFCF2D"/>
<path d="M118.136 116.982C119.005 115.85 118.796 114.229 117.668 113.362C116.54 112.495 114.92 112.71 114.05 113.842C113.18 114.974 113.39 116.594 114.518 117.461C115.646 118.328 117.266 118.114 118.136 116.982Z" fill="#FFCF2D"/>
<path d="M131.093 95.8926C132.26 96.7897 132.461 98.3408 131.561 99.512C130.661 100.683 129.11 100.889 127.943 99.9917C126.776 99.0946 126.575 97.5435 127.475 96.3723C128.3 95.2988 129.926 94.9956 131.093 95.8926Z" fill="#FFCF2D"/>
<path d="M144.518 78.4229C145.686 79.3199 145.886 80.8711 144.986 82.0422C144.086 83.2134 142.536 83.419 141.368 82.522C140.201 81.6249 140.001 80.0738 140.901 78.9026C141.801 77.7315 143.351 77.5259 144.518 78.4229Z" fill="#FFCF2D"/>
<path d="M157.869 61.0508C159.036 61.9479 159.236 63.499 158.336 64.6702C157.436 65.8413 155.886 66.0469 154.719 65.1499C153.551 64.2529 153.351 62.7017 154.251 61.5305C155.151 60.3594 156.701 60.1538 157.869 61.0508Z" fill="#FFCF2D"/>
<path d="M171.762 47.2004C172.631 46.0685 172.422 44.4481 171.294 43.5811C170.166 42.7141 168.546 42.9289 167.676 44.0608C166.806 45.1927 167.016 46.8132 168.144 47.6802C169.272 48.5471 170.892 48.3324 171.762 47.2004Z" fill="#FFCF2D"/>
<path d="M184.719 26.1114C185.886 27.0084 186.087 28.5595 185.187 29.7307C184.287 30.9019 182.736 31.1075 181.569 30.2104C180.402 29.3134 180.201 27.7622 181.101 26.5911C181.926 25.5175 183.552 25.2143 184.719 26.1114Z" fill="#FFCF2D"/>
<path d="M91.9609 176.813C93.1282 177.71 93.3286 179.261 92.4286 180.432C91.5286 181.603 89.9781 181.809 88.8108 180.912C87.6435 180.015 87.4431 178.463 88.3431 177.292C89.2431 176.121 90.7936 175.916 91.9609 176.813Z" fill="#FFCF2D"/>
<path d="M105.386 159.343C106.553 160.24 106.754 161.791 105.854 162.962C104.954 164.133 103.403 164.339 102.236 163.442C101.069 162.545 100.868 160.994 101.768 159.823C102.593 158.749 104.219 158.446 105.386 159.343Z" fill="#FFCF2D"/>
<path d="M118.736 141.971C119.904 142.868 120.104 144.419 119.204 145.59C118.304 146.761 116.753 146.967 115.586 146.07C114.419 145.173 114.218 143.622 115.118 142.45C116.018 141.279 117.569 141.074 118.736 141.971Z" fill="#FFCF2D"/>
<path d="M132.162 124.501C133.329 125.398 133.529 126.949 132.629 128.12C131.729 129.292 130.179 129.497 129.012 128.6C127.844 127.703 127.644 126.152 128.544 124.981C129.444 123.81 130.994 123.604 132.162 124.501Z" fill="#FFCF2D"/>
<path d="M145.587 107.031C146.754 107.928 146.955 109.479 146.055 110.651C145.155 111.822 143.604 112.027 142.437 111.13C141.27 110.233 141.069 108.682 141.969 107.511C142.794 106.437 144.42 106.134 145.587 107.031Z" fill="#FFCF2D"/>
<path d="M159.012 89.5606C160.179 90.4576 160.38 92.0088 159.48 93.1799C158.58 94.3511 157.029 94.5567 155.862 93.6597C154.695 92.7626 154.494 91.2115 155.394 90.0403C156.294 88.8692 157.845 88.6636 159.012 89.5606Z" fill="#FFCF2D"/>
<path d="M172.362 72.1885C173.53 73.0856 173.73 74.6367 172.83 75.8079C171.93 76.979 170.379 77.1846 169.212 76.2876C168.045 75.3906 167.844 73.8394 168.744 72.6682C169.644 71.4971 171.195 71.2915 172.362 72.1885Z" fill="#FFCF2D"/>
<path d="M185.788 54.7188C186.955 55.6158 187.155 57.167 186.255 58.3381C185.355 59.5093 183.805 59.7149 182.637 58.8179C181.47 57.9208 181.27 56.3697 182.17 55.1985C183.07 54.0274 184.62 53.8218 185.788 54.7188Z" fill="#FFCF2D"/>
<path d="M199.213 37.2491C200.38 38.1461 200.581 39.6973 199.681 40.8684C198.781 42.0396 197.23 42.2452 196.063 41.3481C194.895 40.4511 194.695 38.8999 195.595 37.7288C196.42 36.6552 198.046 36.352 199.213 37.2491Z" fill="#FFCF2D"/>
<path d="M106.357 187.876C107.525 188.773 107.725 190.324 106.825 191.495C105.925 192.667 104.375 192.872 103.207 191.975C102.04 191.078 101.84 189.527 102.74 188.356C103.64 187.185 105.287 187.054 106.357 187.876Z" fill="#FFCF2D"/>
<path d="M119.783 170.406C120.95 171.303 121.15 172.854 120.25 174.026C119.35 175.197 117.8 175.402 116.633 174.505C115.465 173.608 115.265 172.057 116.165 170.886C116.99 169.812 118.713 169.584 119.783 170.406Z" fill="#FFCF2D"/>
<path d="M133.133 153.034C134.3 153.931 134.5 155.482 133.6 156.654C132.7 157.825 131.15 158.03 129.983 157.133C128.815 156.236 128.615 154.685 129.515 153.514C130.415 152.343 132.063 152.212 133.133 153.034Z" fill="#FFCF2D"/>
<path d="M146.558 135.564C147.725 136.462 147.926 138.013 147.026 139.184C146.126 140.355 144.575 140.561 143.408 139.664C142.241 138.767 142.04 137.215 142.94 136.044C143.84 134.873 145.488 134.742 146.558 135.564Z" fill="#FFCF2D"/>
<path d="M159.983 118.094C161.151 118.991 161.351 120.542 160.451 121.713C159.551 122.884 158.001 123.09 156.833 122.193C155.666 121.296 155.466 119.745 156.366 118.574C157.191 117.5 158.913 117.272 159.983 118.094Z" fill="#FFCF2D"/>
<path d="M173.409 100.624C174.576 101.521 174.776 103.072 173.876 104.243C172.976 105.415 171.426 105.62 170.259 104.723C169.091 103.826 168.891 102.275 169.791 101.104C170.691 99.9326 172.339 99.8018 173.409 100.624Z" fill="#FFCF2D"/>
<path d="M186.759 83.252C187.926 84.149 188.126 85.7002 187.226 86.8713C186.326 88.0425 184.776 88.2481 183.609 87.3511C182.441 86.454 182.241 84.9029 183.141 83.7317C184.041 82.5606 185.689 82.4297 186.759 83.252Z" fill="#FFCF2D"/>
<path d="M200.184 65.7823C201.351 66.6793 201.552 68.2305 200.652 69.4016C199.752 70.5728 198.201 70.7784 197.034 69.8813C195.867 68.9843 195.666 67.4332 196.566 66.262C197.466 65.0908 199.114 64.96 200.184 65.7823Z" fill="#FFCF2D"/>
<path d="M213.609 48.3126C214.777 49.2096 214.977 50.7607 214.077 51.9319C213.177 53.103 211.627 53.3086 210.459 52.4116C209.292 51.5146 209.092 49.9634 209.992 48.7923C210.817 47.7187 212.539 47.4903 213.609 48.3126Z" fill="#FFCF2D"/>
</svg>
